<svg width="24" height="22" viewBox="0 0 24 22" fill="none" xmlns="http://www.w3.org/2000/svg">
<path id="Vector" d="M11.1327 21.1122L11.8972 20.4675C10.6056 18.9359 8.94116 17.5686 7.41371 16.314L7.35476 16.2655L7.35436 16.2652C5.68446 14.8949 4.09108 13.5821 2.90139 12.0967C1.7309 10.6352 1 9.06388 1 7.18609C1 5.45703 1.59989 4.04838 2.57447 3.07419C3.54906 2.09998 4.95864 1.5 6.68945 1.5C8.53279 1.5 10.2276 2.85056 11.2742 3.94772L11.9978 4.70622L12.7214 3.94772C13.7672 2.85138 15.4666 1.5 17.3116 1.5C19.0418 1.5 20.4511 2.09993 21.4256 3.07415C22.4001 4.04835 23 5.45703 23 7.18609C23 9.06431 22.2687 10.6358 21.0977 12.0974C19.9077 13.5829 18.314 14.8953 16.6446 16.2652L16.6249 16.2813C15.0848 17.5445 13.4053 18.922 12.1009 20.4659C12.0812 20.4891 12.0546 20.5 12.0305 20.5H11.9673C11.9422 20.5 11.9151 20.4886 11.8955 20.4656L11.1327 21.1122ZM11.1327 21.1122C11.3411 21.358 11.6465 21.5 11.9673 21.5H12.0305C12.3524 21.5 12.6567 21.3569 12.864 21.1122L11.2793 2.56197C10.1564 1.56106 8.53216 0.5 6.68945 0.5C2.75018 0.5 0 3.24982 0 7.18609C0 11.5233 3.41564 14.3267 6.72 17.0382L6.7426 17.0568C8.29558 18.3325 9.90052 19.6509 11.1327 21.1122Z" stroke="white" stroke-width="2"/>
</svg>
