<svg width="215" height="18" viewBox="0 0 215 18" fill="none" xmlns="http://www.w3.org/2000/svg">
<g id="Group 17750">
<g id="Group">
<path id="Vector" d="M125.766 17.7H121.239L124.069 0.310721H128.596L125.766 17.7ZM117.43 0.310721L113.114 12.2712L112.604 9.69563L112.604 9.69656L111.081 1.87642C111.081 1.87642 110.896 0.310721 108.933 0.310721H101.798L101.714 0.605163C101.714 0.605163 103.896 1.05915 106.45 2.59276L110.383 17.7004H115.1L122.303 0.310721H117.43ZM153.04 17.7H157.197L153.573 0.310257H149.933C148.253 0.310257 147.843 1.60617 147.843 1.60617L141.091 17.7H145.811L146.755 15.117H152.51L153.04 17.7ZM148.058 11.5488L150.437 5.04132L151.775 11.5488H148.058ZM141.445 4.49244L142.091 0.758197C142.091 0.758197 140.098 0 138.019 0C135.773 0 130.437 0.981936 130.437 5.75672C130.437 10.2492 136.699 10.305 136.699 12.6647C136.699 15.0244 131.083 14.6016 129.229 13.1136L128.556 17.0181C128.556 17.0181 130.577 18 133.666 18C136.756 18 141.416 16.4003 141.416 12.0465C141.416 7.52523 135.098 7.10427 135.098 5.13854C135.099 3.17234 139.508 3.42492 141.445 4.49244Z" fill="#2566AF"/>
<path id="Vector_2" d="M112.604 9.69639L111.081 1.87625C111.081 1.87625 110.896 0.310547 108.933 0.310547H101.798L101.714 0.604988C101.714 0.604988 105.143 1.31574 108.433 3.97874C111.578 6.52405 112.604 9.69639 112.604 9.69639Z" fill="#E6A540"/>
</g>
<g id="Group 17748">
<path id="Vector_3" d="M27.5627 4.02539H23.4835C23.3485 4.02531 23.2178 4.07345 23.1151 4.16116C23.0124 4.24886 22.9445 4.37036 22.9234 4.50375L21.2736 14.9639C21.266 15.0124 21.269 15.062 21.2825 15.1093C21.2959 15.1565 21.3194 15.2003 21.3514 15.2376C21.3834 15.2749 21.423 15.3049 21.4677 15.3254C21.5123 15.3459 21.5609 15.3564 21.61 15.3564H23.5575C23.6926 15.3564 23.8233 15.3082 23.926 15.2204C24.0287 15.1325 24.0966 15.0109 24.1175 14.8774L24.5625 12.0561C24.5834 11.9227 24.6512 11.8012 24.7538 11.7134C24.8564 11.6256 24.9869 11.5773 25.122 11.5772H26.4133C29.1004 11.5772 30.6512 10.2769 31.0562 7.70019C31.2387 6.57288 31.0639 5.68713 30.5361 5.06681C29.9563 4.38565 28.928 4.02539 27.5627 4.02539ZM28.0333 7.84572C27.8102 9.30944 26.6919 9.30944 25.6105 9.30944H24.9949L25.4268 6.57586C25.4394 6.49588 25.4802 6.42305 25.5417 6.37045C25.6033 6.31786 25.6816 6.28896 25.7626 6.28896H26.0447C26.7813 6.28896 27.4762 6.28896 27.8353 6.70887C28.0494 6.95938 28.115 7.33157 28.0333 7.84572ZM39.7561 7.7986H37.8027C37.7218 7.7986 37.6435 7.8275 37.5819 7.8801C37.5203 7.93269 37.4796 8.00553 37.4669 8.0855L37.3804 8.63186L37.2439 8.43383C36.821 7.82008 35.878 7.61489 34.9367 7.61489C32.7781 7.61489 30.9345 9.24979 30.5754 11.5432C30.3887 12.6872 30.6542 13.7811 31.3031 14.544C31.8984 15.2454 32.7501 15.5377 33.7635 15.5377C35.5028 15.5377 36.4673 14.4193 36.4673 14.4193L36.3802 14.9621C36.3724 15.0106 36.3753 15.0603 36.3885 15.1076C36.4018 15.1549 36.4252 15.1988 36.457 15.2362C36.4889 15.2736 36.5285 15.3037 36.5731 15.3243C36.6177 15.345 36.6662 15.3557 36.7154 15.3558H38.4749C38.6101 15.3558 38.7408 15.3076 38.8435 15.2198C38.9462 15.1319 39.0141 15.0103 39.035 14.8768L40.0908 8.19107C40.0985 8.14265 40.0957 8.09312 40.0825 8.04591C40.0692 7.99869 40.0459 7.95491 40.0141 7.91759C39.9822 7.88027 39.9427 7.85031 39.8982 7.82976C39.8536 7.80922 39.8052 7.79859 39.7561 7.7986ZM37.0333 11.6004C36.8448 12.7164 35.9591 13.4656 34.8294 13.4656C34.2621 13.4656 33.8088 13.2837 33.5178 12.9389C33.2291 12.5965 33.1193 12.1092 33.2112 11.5664C33.3871 10.46 34.2878 9.6864 35.4002 9.6864C35.9549 9.6864 36.4058 9.87071 36.7029 10.2184C37.0005 10.5698 37.1186 11.0601 37.0333 11.6004ZM50.1596 7.7986H48.1967C48.1041 7.79875 48.013 7.82148 47.9312 7.86482C47.8493 7.90817 47.7794 7.97081 47.7272 8.04733L45.0199 12.0353L43.8723 8.203C43.8371 8.08612 43.7652 7.98368 43.6672 7.91085C43.5692 7.83802 43.4504 7.79866 43.3284 7.7986H41.3994C41.3452 7.79846 41.2919 7.81125 41.2436 7.83591C41.1954 7.86057 41.1538 7.89639 41.1223 7.94039C41.0907 7.98438 41.0701 8.03528 41.0622 8.08884C41.0542 8.1424 41.0592 8.19709 41.0767 8.24834L43.2389 14.5935L41.2061 17.4631C41.17 17.5139 41.1486 17.5738 41.1442 17.636C41.1398 17.6983 41.1527 17.7605 41.1813 17.816C41.2099 17.8714 41.2533 17.9179 41.3066 17.9503C41.3599 17.9828 41.4211 17.9999 41.4835 17.9999H43.4441C43.5356 18 43.6258 17.9779 43.7069 17.9355C43.7881 17.8932 43.8577 17.8317 43.9099 17.7565L50.4388 8.33244C50.4742 8.28145 50.4949 8.22175 50.4988 8.15981C50.5027 8.09786 50.4895 8.03604 50.4607 7.98105C50.432 7.92605 50.3887 7.87997 50.3356 7.84781C50.2826 7.81565 50.2217 7.79863 50.1596 7.7986Z" fill="#253B80"/>
<path id="Vector_4" d="M56.6595 4.02599H52.5797C52.4447 4.02604 52.3142 4.07426 52.2117 4.16195C52.1091 4.24964 52.0412 4.37106 52.0202 4.50435L50.3704 14.9645C50.3627 15.0129 50.3656 15.0625 50.379 15.1097C50.3923 15.1569 50.4157 15.2007 50.4475 15.238C50.4794 15.2753 50.519 15.3052 50.5635 15.3258C50.6081 15.3463 50.6565 15.357 50.7056 15.357H52.7992C52.8936 15.3568 52.9849 15.323 53.0567 15.2615C53.1284 15.2001 53.1758 15.1151 53.1905 15.0217L53.6587 12.0567C53.6796 11.9233 53.7474 11.8018 53.85 11.714C53.9526 11.6262 54.0831 11.5779 54.2182 11.5778H55.5089C58.1966 11.5778 59.7468 10.2775 60.1524 7.70078C60.3355 6.57347 60.1595 5.68773 59.6316 5.06741C59.0525 4.38625 58.0248 4.02599 56.6595 4.02599ZM57.1301 7.84632C56.9076 9.31004 55.7892 9.31004 54.7073 9.31004H54.0923L54.5247 6.57645C54.5371 6.49648 54.5778 6.42358 54.6392 6.37096C54.7007 6.31833 54.779 6.28946 54.86 6.28956H55.1421C55.8781 6.28956 56.5736 6.28956 56.9327 6.70947C57.1468 6.95998 57.2118 7.33217 57.1301 7.84632ZM68.8523 7.7992H66.9001C66.8192 7.79898 66.7408 7.82781 66.6793 7.88046C66.6178 7.9331 66.5772 8.00607 66.5649 8.0861L66.4784 8.63246L66.3412 8.43443C65.9183 7.82067 64.9759 7.61549 64.0347 7.61549C61.8761 7.61549 60.0331 9.25039 59.674 11.5438C59.4879 12.6878 59.7521 13.7817 60.4011 14.5446C60.9975 15.246 61.8481 15.5383 62.8615 15.5383C64.6008 15.5383 65.5652 14.4199 65.5652 14.4199L65.4782 14.9627C65.4704 15.0113 65.4733 15.0611 65.4866 15.1085C65.4999 15.1559 65.5234 15.1998 65.5554 15.2373C65.5874 15.2747 65.6271 15.3047 65.6719 15.3253C65.7166 15.3459 65.7653 15.3565 65.8146 15.3564H67.5735C67.7085 15.3563 67.8391 15.308 67.9417 15.2202C68.0443 15.1324 68.1121 15.0108 68.133 14.8774L69.1893 8.19167C69.1968 8.1431 69.1937 8.09348 69.1802 8.04622C69.1667 7.99897 69.1431 7.95519 69.1111 7.91791C69.0791 7.88062 69.0394 7.8507 68.9947 7.83021C68.9501 7.80972 68.9015 7.79914 68.8523 7.7992ZM66.1295 11.601C65.9422 12.717 65.0553 13.4662 63.9256 13.4662C63.3595 13.4662 62.905 13.2843 62.6139 12.9395C62.3253 12.5971 62.2167 12.1098 62.3074 11.567C62.4845 10.4606 63.384 9.687 64.4964 9.687C65.0511 9.687 65.502 9.87131 65.799 10.219C66.0979 10.5704 66.216 11.0606 66.1295 11.601ZM71.1553 4.31288L69.481 14.9645C69.4733 15.0129 69.4763 15.0625 69.4896 15.1097C69.5029 15.1569 69.5263 15.2007 69.5581 15.238C69.59 15.2753 69.6296 15.3052 69.6741 15.3258C69.7187 15.3463 69.7672 15.357 69.8162 15.357H71.4994C71.7792 15.357 72.0166 15.1542 72.0595 14.878L73.7105 4.41846C73.7182 4.36997 73.7153 4.32041 73.7019 4.27316C73.6886 4.22591 73.6652 4.18211 73.6334 4.14476C73.6015 4.10741 73.562 4.0774 73.5174 4.0568C73.4729 4.03619 73.4244 4.02548 73.3753 4.02539H71.4905C71.4096 4.02568 71.3314 4.05477 71.27 4.10745C71.2085 4.16013 71.1679 4.23295 71.1553 4.31288Z" fill="#179BD7"/>
<path id="Vector_5" d="M4.33385 17.3898L4.6458 15.4083L3.95093 15.3922H0.632812L2.93873 0.771182C2.9456 0.726508 2.96829 0.685789 3.00267 0.656446C3.03704 0.627104 3.08082 0.611092 3.12602 0.611331H8.72083C10.5782 0.611331 11.86 0.997837 12.5292 1.76071C12.843 2.11859 13.0428 2.49257 13.1394 2.90413C13.2408 3.33597 13.2426 3.8519 13.1436 4.48117L13.1364 4.5271V4.93031L13.4502 5.10805C13.6897 5.22939 13.905 5.39354 14.0854 5.59238C14.3538 5.89836 14.5274 6.28725 14.6007 6.74832C14.6765 7.22251 14.6514 7.78676 14.5274 8.42557C14.3842 9.16041 14.1528 9.80041 13.8403 10.3241C13.5645 10.7932 13.1937 11.1996 12.7517 11.517C12.3366 11.8117 11.8433 12.0353 11.2856 12.1785C10.7452 12.3193 10.1291 12.3902 9.45328 12.3902H9.01786C8.70651 12.3902 8.4041 12.5024 8.16671 12.7034C7.92966 12.9065 7.7724 13.1872 7.72295 13.4955L7.69014 13.6738L7.13901 17.1661L7.11396 17.2943C7.1074 17.3349 7.09607 17.3552 7.07936 17.3689C7.06319 17.3821 7.043 17.3895 7.0221 17.3898H4.33385Z" fill="#253B80"/>
<path id="Vector_6" d="M13.7475 4.57422C13.7308 4.68099 13.7117 4.79014 13.6903 4.90227C12.9524 8.6904 10.4282 9.99903 7.20435 9.99903H5.56289C5.16863 9.99903 4.8364 10.2853 4.77497 10.6742L3.93455 16.0042L3.69656 17.515C3.68708 17.575 3.6907 17.6362 3.70717 17.6946C3.72364 17.753 3.75257 17.8072 3.79197 17.8533C3.83137 17.8995 3.8803 17.9365 3.93539 17.9619C3.99048 17.9873 4.05043 18.0005 4.1111 18.0006H7.02243C7.36719 18.0006 7.66005 17.75 7.71433 17.4101L7.74296 17.2621L8.2911 13.7836L8.32629 13.5927C8.37998 13.2515 8.67344 13.001 9.01819 13.001H9.45361C12.2743 13.001 14.4824 11.8558 15.1277 8.54188C15.3973 7.15749 15.2578 6.00155 14.5444 5.18857C14.3183 4.93708 14.0483 4.7289 13.7475 4.57422Z" fill="#179BD7"/>
<path id="Vector_7" d="M12.9754 4.26504C12.7398 4.19689 12.5002 4.1437 12.2579 4.10579C11.7791 4.03221 11.2952 3.9969 10.8108 4.00021H6.42566C6.25878 4.00008 6.09735 4.05966 5.97056 4.16818C5.84378 4.2767 5.76 4.427 5.73436 4.5919L4.8015 10.5004L4.77466 10.6728C4.80372 10.4847 4.89914 10.3133 5.04366 10.1894C5.18818 10.0656 5.37226 9.99753 5.56258 9.99763H7.20404C10.4279 9.99763 12.9521 8.6884 13.69 4.90087C13.712 4.78873 13.7305 4.67958 13.7472 4.57282C13.5525 4.47072 13.3496 4.38512 13.1406 4.31693C13.0858 4.29875 13.0307 4.28145 12.9754 4.26504Z" fill="#222D65"/>
<path id="Vector_8" d="M5.73432 4.59215C5.75974 4.4272 5.84347 4.27683 5.97032 4.16837C6.09717 4.05991 6.25872 4.00054 6.42562 4.00106H10.8108C11.3303 4.00106 11.8152 4.03506 12.2578 4.10664C12.5573 4.1537 12.8527 4.2241 13.1412 4.31719C13.3589 4.38936 13.5611 4.47465 13.7478 4.57307C13.9673 3.17317 13.746 2.22003 12.9891 1.35695C12.1546 0.406787 10.6486 0 8.7214 0H3.1266C2.73293 0 2.39712 0.286301 2.33628 0.67579L0.00591076 15.4472C-0.00494373 15.5157 -0.00081397 15.5858 0.018016 15.6527C0.0368459 15.7195 0.0699291 15.7815 0.11499 15.8343C0.160051 15.8871 0.21602 15.9296 0.279047 15.9587C0.342074 15.9878 0.410664 16.003 0.480097 16.0031H3.9342L4.80146 10.5007L5.73432 4.59215Z" fill="#253B80"/>
</g>
<g id="Group 17749">
<path id="Vector_9" d="M203.696 16.0753H195.821V1.92383H203.696L203.696 16.0753Z" fill="#FF5F00"/>
<path id="Vector_10" d="M196.32 9C196.32 6.12938 197.665 3.57223 199.758 1.92428C198.173 0.675038 196.214 -0.00297132 194.196 9.78876e-06C189.226 9.78876e-06 185.197 4.02938 185.197 9C185.197 13.9706 189.226 18 194.196 18C196.214 18.003 198.173 17.325 199.758 16.0757C197.665 14.4281 196.32 11.8708 196.32 9Z" fill="#EB001B"/>
<path id="Vector_11" d="M214.319 9C214.319 13.9706 210.29 18 205.32 18C203.302 18.003 201.342 17.325 199.758 16.0757C201.851 14.4278 203.196 11.8708 203.196 9C203.196 6.12924 201.851 3.57223 199.758 1.92428C201.342 0.675075 203.302 -0.00291907 205.32 9.44732e-06C210.29 9.44732e-06 214.319 4.02938 214.319 9" fill="#F79E1B"/>
</g>
</g>
</svg>
