<svg width="132" height="36" viewBox="0 0 132 36" fill="none" xmlns="http://www.w3.org/2000/svg">
<g id="Social">
<g id="Group 431">
<rect id="Rectangle 5197" width="36" height="36" fill="#005D63"/>
<path id="Vector" d="M19.1427 24.8502V18.036H21.1907L21.4621 15.6378H19.1427L19.1461 14.4373C19.1461 13.8118 19.2095 13.4768 20.1673 13.4768H21.4478V11.0781H19.3993C16.9388 11.0781 16.0729 12.2415 16.0729 14.1982V15.638H14.5391V18.0365H16.0729V24.7536C16.6704 24.8653 17.2882 24.9243 17.9207 24.9243C18.3293 24.9243 18.7375 24.8996 19.1427 24.8502Z" fill="white"/>
</g>
<g id="Group 433">
<rect id="Rectangle 5198" x="48" width="36" height="36" fill="#404B4B"/>
<path id="Vector_2" d="M59.0762 12.6865C59.0762 12.2203 59.2399 11.8357 59.5673 11.5327C59.8948 11.2296 60.3205 11.0781 60.8444 11.0781C61.3589 11.0781 61.7752 11.2273 62.0933 11.5257C62.4208 11.8334 62.5845 12.2343 62.5845 12.7285C62.5845 13.176 62.4254 13.549 62.1074 13.8474C61.7799 14.155 61.3496 14.3089 60.8163 14.3089H60.8023C60.2877 14.3089 59.8714 14.155 59.5533 13.8474C59.2352 13.5397 59.0762 13.1527 59.0762 12.6865ZM59.2586 24.9243V15.5816H62.374V24.9243H59.2586ZM64.1001 24.9243H67.2155V19.7075C67.2155 19.3811 67.2529 19.1294 67.3277 18.9523C67.4587 18.6352 67.6575 18.3672 67.9241 18.1481C68.1908 17.9289 68.5252 17.8194 68.9275 17.8194C69.9753 17.8194 70.4992 18.5233 70.4992 19.9313V24.9243H73.6146V19.5676C73.6146 18.1877 73.2872 17.1411 72.6323 16.4278C71.9774 15.7145 71.112 15.3578 70.0362 15.3578C68.8293 15.3578 67.8891 15.8753 67.2155 16.9103V16.9383H67.2014L67.2155 16.9103V15.5816H64.1001C64.1188 15.88 64.1281 16.8077 64.1281 18.3648C64.1281 19.9219 64.1188 22.1084 64.1001 24.9243Z" fill="white"/>
</g>
<g id="Group 432">
<rect id="Rectangle 5199" x="96" width="36" height="36" fill="#404B4B"/>
<path id="Vector_3" d="M123 12.7173C122.331 12.9953 121.617 13.1795 120.874 13.269C121.639 12.8366 122.223 12.1571 122.497 11.338C121.784 11.7406 120.996 12.025 120.157 12.1837C119.48 11.501 118.515 11.0781 117.462 11.0781C115.419 11.0781 113.774 12.6481 113.774 14.5727C113.774 14.8496 113.799 15.1159 113.859 15.3694C110.792 15.2277 108.077 13.8356 106.253 11.715C105.935 12.238 105.748 12.8366 105.748 13.481C105.748 14.6909 106.406 15.7635 107.387 16.3844C106.794 16.3737 106.213 16.2108 105.72 15.9541C105.72 15.9648 105.72 15.9786 105.72 15.9924C105.72 17.6902 106.999 19.1004 108.676 19.4252C108.376 19.503 108.049 19.5403 107.709 19.5403C107.473 19.5403 107.234 19.5275 107.01 19.4806C107.488 20.8642 108.845 21.8813 110.459 21.9143C109.203 22.8442 107.609 23.4044 105.883 23.4044C105.581 23.4044 105.29 23.3916 105 23.3565C106.635 24.3545 108.572 24.9243 110.661 24.9243C117.451 24.9243 121.164 19.5988 121.164 14.9827C121.164 14.8283 121.158 14.6792 121.15 14.5311C121.883 14.0391 122.498 13.4245 123 12.7173Z" fill="white"/>
</g>
</g>
</svg>
