<svg width="256" height="48" viewBox="0 0 256 48" fill="none" xmlns="http://www.w3.org/2000/svg">
<g id="Group 17747">
<g id="Group 17742">
<rect id="Rectangle 5201" width="48" height="48" fill="#00B67A"/>
<path id="Vector" d="M24.5 32.1148L31.2351 30.4277L34.0491 39L24.5 32.1148ZM40 21.0346H28.1443L24.5 10L20.8557 21.0346H9L18.5952 27.8742L14.9509 38.9088L24.5461 32.0692L30.4509 27.8742L40 21.0346Z" fill="white"/>
</g>
<g id="Group 17743">
<rect id="Rectangle 5201_2" x="52" width="48" height="48" fill="#00B67A"/>
<path id="Vector_2" d="M76.5 32.1148L83.2351 30.4277L86.0491 39L76.5 32.1148ZM92 21.0346H80.1443L76.5 10L72.8557 21.0346H61L70.5952 27.8742L66.9509 38.9088L76.5461 32.0692L82.4509 27.8742L92 21.0346Z" fill="white"/>
</g>
<g id="Group 17744">
<rect id="Rectangle 5201_3" x="104" width="48" height="48" fill="#00B67A"/>
<path id="Vector_3" d="M128.5 32.1148L135.235 30.4277L138.049 39L128.5 32.1148ZM144 21.0346H132.144L128.5 10L124.856 21.0346H113L122.595 27.8742L118.951 38.9088L128.546 32.0692L134.451 27.8742L144 21.0346Z" fill="white"/>
</g>
<g id="Group 17745">
<rect id="Rectangle 5201_4" x="156" width="48" height="48" fill="#00B67A"/>
<path id="Vector_4" d="M180.5 32.1148L187.235 30.4277L190.049 39L180.5 32.1148ZM196 21.0346H184.144L180.5 10L176.856 21.0346H165L174.595 27.8742L170.951 38.9088L180.546 32.0692L186.451 27.8742L196 21.0346Z" fill="white"/>
</g>
<g id="Group 17746">
<rect id="Rectangle 5201_5" x="208" width="48" height="48" fill="#00B67A"/>
<path id="Vector_5" d="M232.5 32.1148L239.235 30.4277L242.049 39L232.5 32.1148ZM248 21.0346H236.144L232.5 10L228.856 21.0346H217L226.595 27.8742L222.951 38.9088L232.546 32.0692L238.451 27.8742L248 21.0346Z" fill="white"/>
</g>
</g>
</svg>
