<?xml version="1.0" encoding="iso-8859-1"?>
<!-- Uploaded to: SVG Repo, www.svgrepo.com, Generator: SVG Repo Mixer Tools -->
<svg height="800px" width="800px" version="1.1" id="Layer_1" xmlns="http://www.w3.org/2000/svg" xmlns:xlink="http://www.w3.org/1999/xlink" 
	 viewBox="0 0 511.984 511.984" xml:space="preserve">
<path style="fill:#ED5564;" d="M501.329,117.336H149.331l-21.335,21.327l-21.328-21.327H10.671C4.78,117.336,0,122.109,0,128
	v255.992c0,5.891,4.78,10.656,10.671,10.656h95.997l21.328-21.312l21.335,21.312h351.998c5.874,0,10.655-4.766,10.655-10.656V128
	C511.984,122.109,507.203,117.336,501.329,117.336z M127.996,330.65c-5.891,0-10.664-4.766-10.664-10.656
	s4.773-10.656,10.664-10.656c5.898,0,10.671,4.766,10.671,10.656S133.894,330.65,127.996,330.65z M127.996,287.995
	c-5.891,0-10.664-4.781-10.664-10.656c0-5.897,4.773-10.679,10.664-10.679c5.898,0,10.671,4.781,10.671,10.679
	C138.667,283.214,133.894,287.995,127.996,287.995z M127.996,245.332c-5.891,0-10.664-4.781-10.664-10.671
	s4.773-10.664,10.664-10.664c5.898,0,10.671,4.773,10.671,10.664S133.894,245.332,127.996,245.332z M127.996,202.661
	c-5.891,0-10.664-4.773-10.664-10.664s4.773-10.664,10.664-10.664c5.898,0,10.671,4.773,10.671,10.664
	C138.667,197.888,133.894,202.661,127.996,202.661z"/>
<g>
	<path style="fill:#434A54;" d="M277.335,255.996c23.562,0,42.655-19.101,42.655-42.663s-19.093-42.67-42.655-42.67
		c-23.569,0-42.67,19.109-42.67,42.67C234.665,236.895,253.765,255.996,277.335,255.996z M277.335,191.998
		c11.75,0,21.328,9.57,21.328,21.335c0,11.758-9.578,21.328-21.328,21.328c-11.773,0-21.336-9.57-21.336-21.328
		C255.999,201.568,265.561,191.998,277.335,191.998z"/>
	<path style="fill:#434A54;" d="M362.661,255.996c-23.562,0-42.671,19.093-42.671,42.654c0,23.578,19.108,42.687,42.671,42.687
		c23.562,0,42.67-19.108,42.67-42.687C405.331,275.089,386.222,255.996,362.661,255.996z M362.661,319.994
		c-11.766,0-21.328-9.562-21.328-21.344c0-11.749,9.562-21.312,21.328-21.312c11.765,0,21.327,9.562,21.327,21.312
		C383.988,310.431,374.426,319.994,362.661,319.994z"/>
	<path style="fill:#434A54;" d="M402.206,188.873c1.922-1.93,3.125-4.594,3.125-7.539c0-5.891-4.781-10.671-10.672-10.671
		c-2.953,0-5.609,1.195-7.546,3.125L237.789,323.119c-1.929,1.938-3.124,4.594-3.124,7.531c0,5.906,4.772,10.687,10.663,10.687
		c2.945,0,5.617-1.203,7.547-3.14L402.206,188.873z"/>
</g>
<path style="fill:#DA4453;" d="M10.671,117.336C4.78,117.336,0,122.109,0,128v255.992c0,5.891,4.78,10.656,10.671,10.656h95.997
	l21.328-21.312l0,0V330.65c-5.891,0-10.664-4.766-10.664-10.656s4.773-10.656,10.664-10.656v-21.343
	c-5.891,0-10.664-4.781-10.664-10.656c0-5.897,4.773-10.679,10.664-10.679v-21.328c-5.891,0-10.664-4.781-10.664-10.671
	s4.773-10.664,10.664-10.664v-21.335c-5.891,0-10.664-4.773-10.664-10.664s4.773-10.664,10.664-10.664v-42.671l-21.328-21.327
	L10.671,117.336L10.671,117.336z"/>
</svg>