<svg xmlns="http://www.w3.org/2000/svg"  viewBox="0 0 64 64" width="64px" height="64px"><path d="M 3 10 C 1.300781 10 0 11.300781 0 13 L 0 21.199219 C 0 22.699219 1 23.898438 2.398438 24.097656 C 6.199219 24.800781 9 28.101563 9 32 C 9 35.898438 6.199219 39.199219 2.398438 39.902344 C 1 40.101563 0 41.402344 0 42.800781 L 0 51 C 0 52.699219 1.300781 54 3 54 L 61 54 C 62.699219 54 64 52.699219 64 51 L 64 42.800781 C 64 41.300781 63 40.101563 61.597656 39.902344 C 57.800781 39.199219 55 35.898438 55 32 C 55 28.101563 57.800781 24.800781 61.597656 24.097656 C 63 23.800781 64 22.597656 64 21.199219 L 64 13 C 64 11.300781 62.699219 10 61 10 Z M 3 12 L 14 12 C 14 12.601563 14.398438 13 15 13 L 17 13 C 17.601563 13 18 12.601563 18 12 L 61 12 C 61.601563 12 62 12.398438 62 13 L 62 21.199219 C 62 21.699219 61.699219 22.097656 61.199219 22.199219 C 56.5 23 53 27.199219 53 32 C 53 36.800781 56.5 41 61.199219 41.800781 C 61.699219 41.902344 62 42.300781 62 42.800781 L 62 51 C 62 51.601563 61.601563 52 61 52 L 18 52 C 18 51.398438 17.601563 51 17 51 L 15 51 C 14.398438 51 14 51.398438 14 52 L 3 52 C 2.398438 52 2 51.601563 2 51 L 2 42.800781 C 2 42.300781 2.300781 41.902344 2.800781 41.800781 C 7.5 41 11 36.800781 11 32 C 11 27.199219 7.5 23 2.800781 22.199219 C 2.300781 22.097656 2 21.699219 2 21.199219 L 2 13 C 2 12.398438 2.398438 12 3 12 Z M 21 14 C 20.398438 14 20 14.398438 20 15 L 20 49 C 20 49.601563 20.398438 50 21 50 C 21.601563 50 22 49.601563 22 49 L 22 15 C 22 14.398438 21.601563 14 21 14 Z M 15 16 C 14.398438 16 14 16.398438 14 17 C 14 17.601563 14.398438 18 15 18 L 17 18 C 17.601563 18 18 17.601563 18 17 C 18 16.398438 17.601563 16 17 16 Z M 45.113281 19.964844 C 44.722656 19.917969 44.347656 20.125 44.199219 20.5 L 32.199219 43.5 C 31.898438 44 32.097656 44.601563 32.597656 44.800781 C 32.699219 45 32.800781 45 33 45 C 33.398438 45 33.699219 44.800781 33.902344 44.5 L 45.902344 21.5 C 46.101563 21 46 20.398438 45.5 20.097656 C 45.375 20.023438 45.242188 19.980469 45.113281 19.964844 Z M 15 21 C 14.398438 21 14 21.398438 14 22 C 14 22.601563 14.398438 23 15 23 L 17 23 C 17.601563 23 18 22.601563 18 22 C 18 21.398438 17.601563 21 17 21 Z M 33 21 C 31.300781 21 30 22.300781 30 24 L 30 27 C 30 28.699219 31.300781 30 33 30 L 34 30 C 35.699219 30 37 28.699219 37 27 L 37 24 C 37 22.300781 35.699219 21 34 21 Z M 33 23 L 34 23 C 34.601563 23 35 23.398438 35 24 L 35 27 C 35 27.601563 34.601563 28 34 28 L 33 28 C 32.398438 28 32 27.601563 32 27 L 32 24 C 32 23.398438 32.398438 23 33 23 Z M 15 26 C 14.398438 26 14 26.398438 14 27 C 14 27.601563 14.398438 28 15 28 L 17 28 C 17.601563 28 18 27.601563 18 27 C 18 26.398438 17.601563 26 17 26 Z M 15 31 C 14.398438 31 14 31.398438 14 32 C 14 32.601563 14.398438 33 15 33 L 17 33 C 17.601563 33 18 32.601563 18 32 C 18 31.398438 17.601563 31 17 31 Z M 44 34 C 42.300781 34 41 35.300781 41 37 L 41 40 C 41 41.699219 42.300781 43 44 43 L 45 43 C 46.699219 43 48 41.699219 48 40 L 48 37 C 48 35.300781 46.699219 34 45 34 Z M 15 36 C 14.398438 36 14 36.398438 14 37 C 14 37.601563 14.398438 38 15 38 L 17 38 C 17.601563 38 18 37.601563 18 37 C 18 36.398438 17.601563 36 17 36 Z M 44 36 L 45 36 C 45.601563 36 46 36.398438 46 37 L 46 40 C 46 40.601563 45.601563 41 45 41 L 44 41 C 43.398438 41 43 40.601563 43 40 L 43 37 C 43 36.398438 43.398438 36 44 36 Z M 15 41 C 14.398438 41 14 41.398438 14 42 C 14 42.601563 14.398438 43 15 43 L 17 43 C 17.601563 43 18 42.601563 18 42 C 18 41.398438 17.601563 41 17 41 Z M 15 46 C 14.398438 46 14 46.398438 14 47 C 14 47.601563 14.398438 48 15 48 L 17 48 C 17.601563 48 18 47.601563 18 47 C 18 46.398438 17.601563 46 17 46 Z"/></svg>