<svg xmlns="http://www.w3.org/2000/svg"  viewBox="0 0 48 48" width="96px" height="96px"><path fill="#FF5252" d="M46,36c0,1.657-1.343,3-3,3H5c-1.657,0-3-1.343-3-3V12c0-1.657,1.343-3,3-3h38c1.657,0,3,1.343,3,3V36z"/><path fill="#FFF" d="M21.045 16.097C20.408 15.366 19.555 15 18.487 15c-1.069 0-1.917.372-2.545 1.117S15 17.823 15 19.001v.944c0 1.25.322 2.238.968 2.965.645.727 1.494 1.09 2.545 1.09 1.06 0 1.906-.363 2.538-1.09C21.684 22.183 22 21.222 22 20.025v-.97C22 17.814 21.681 16.828 21.045 16.097zM19.628 19.985c0 .532-.101.962-.301 1.29-.201.328-.473.492-.814.492-.333 0-.609-.157-.827-.472-.218-.314-.327-.738-.327-1.27v-.984c0-.54.103-.977.308-1.309.205-.332.478-.499.821-.499.35 0 .628.166.833.499.205.332.308.756.308 1.27V19.985zM20 34L18.168 32.961 28.154 13.961 30 15zM32.04 25.083C31.4 24.361 30.551 24 29.494 24c-1.049 0-1.894.366-2.534 1.097C26.32 25.828 26 26.792 26 27.988v.984c0 1.214.315 2.189.947 2.925C27.578 32.633 28.436 33 29.519 33c1.075 0 1.924-.366 2.547-1.097C32.688 31.172 33 30.213 33 29.025v-.97C33 26.796 32.68 25.806 32.04 25.083zM30.633 29.198c-.034 1.055-.405 1.582-1.113 1.582-.316 0-.587-.168-.813-.505-.226-.337-.339-.753-.339-1.25v-.758c0-1.356.375-2.034 1.126-2.034.341 0 .616.162.825.485.209.324.314.747.314 1.27V29.198z"/></svg>